<?xml version="1.0" encoding="UTF-8" standalone="no"?>
<!-- Created with Inkscape (http://www.inkscape.org/) -->

<svg
   width="80.856094mm"
   height="114.19797mm"
   viewBox="0 0 80.856094 114.19797"
   version="1.1"
   id="svg1"
   xmlns:xlink="http://www.w3.org/1999/xlink"
   xmlns="http://www.w3.org/2000/svg"
   xmlns:svg="http://www.w3.org/2000/svg">
  <defs
     id="defs1">
    <linearGradient
       id="linearGradient57">
      <stop
         style="stop-color:#fe0000;stop-opacity:1;"
         offset="0"
         id="stop57" />
      <stop
         style="stop-color:#ff8800;stop-opacity:1;"
         offset="1"
         id="stop58" />
    </linearGradient>
    <linearGradient
       id="linearGradient50">
      <stop
         style="stop-color:#ff4b04;stop-opacity:1;"
         offset="0"
         id="stop50" />
      <stop
         style="stop-color:#ffa214;stop-opacity:1;"
         offset="1"
         id="stop51" />
    </linearGradient>
    <linearGradient
       id="linearGradient48">
      <stop
         style="stop-color:#ff7e0a;stop-opacity:1;"
         offset="0"
         id="stop48" />
      <stop
         style="stop-color:#fffa11;stop-opacity:1;"
         offset="1"
         id="stop49" />
    </linearGradient>
    <linearGradient
       id="linearGradient46">
      <stop
         style="stop-color:#ff7e0a;stop-opacity:1;"
         offset="0"
         id="stop46" />
      <stop
         style="stop-color:#fffa11;stop-opacity:1;"
         offset="1"
         id="stop47" />
    </linearGradient>
    <linearGradient
       xlink:href="#linearGradient46"
       id="linearGradient47"
       x1="229.15723"
       y1="477.12152"
       x2="521.67914"
       y2="477.12152"
       gradientUnits="userSpaceOnUse"
       gradientTransform="scale(0.26458333)" />
    <linearGradient
       xlink:href="#linearGradient48"
       id="linearGradient49"
       x1="229.15723"
       y1="553.11389"
       x2="521.67914"
       y2="553.11389"
       gradientUnits="userSpaceOnUse"
       gradientTransform="scale(0.26458333)" />
    <linearGradient
       xlink:href="#linearGradient50"
       id="linearGradient51"
       x1="229.15732"
       y1="417.68802"
       x2="521.57031"
       y2="417.68802"
       gradientUnits="userSpaceOnUse"
       gradientTransform="scale(0.26458333)" />
    <linearGradient
       xlink:href="#linearGradient57"
       id="linearGradient58"
       x1="71.015907"
       y1="72.757111"
       x2="126.00393"
       y2="72.757111"
       gradientUnits="userSpaceOnUse" />
  </defs>
  <g
     id="layer1"
     transform="translate(-58.879903,-47.515994)">
    <path
       id="path36"
       style="fill:url(#linearGradient49);fill-opacity:1;stroke:none;stroke-width:2;stroke-linecap:round;stroke-dasharray:none;stroke-opacity:1"
       d="m 61.050018,134.45071 c 0,5.64203 0,11.28406 0,16.92609 0.88972,0.84004 1.743038,1.74135 2.805502,2.36869 1.567492,0.95392 3.323614,1.53143 5.056907,2.10269 3.573722,1.12257 7.260571,1.84265 10.958359,2.41262 3.259415,0.48909 6.539026,0.85079 9.828503,1.0604 3.645122,0.17808 7.296153,0.19285 10.945001,0.18794 2.88733,-0.0213 5.77713,-0.0404 8.65966,-0.2201 5.34892,-0.39335 10.68938,-1.05509 15.92617,-2.23207 2.65868,-0.61325 5.30744,-1.33804 7.81047,-2.43813 1.26555,-0.57802 2.53533,-1.23734 3.51627,-2.24452 0.35677,-0.39171 0.70067,-0.79503 1.05179,-1.19182 0,-5.8825 0,-11.765 0,-17.6475 -1.29041,0.74428 -2.5472,1.55649 -3.91688,2.15224 -2.96623,1.31705 -6.12153,2.146 -9.288,2.82007 -1.03802,0.21401 -2.12888,0.42192 -3.19364,0.59926 -3.75479,0.63449 -7.60814,1.05334 -11.40752,1.32791 -2.68543,0.19207 -5.3675,0.21922 -8.06277,0.23491 -3.109845,0.005 -6.219699,-0.043 -9.32791,-0.1436 -1.632635,-0.0565 -3.309792,-0.12426 -4.944753,-0.22436 -1.629045,-0.0977 -3.247485,-0.22372 -4.871897,-0.44432 -2.262272,-0.29017 -4.530241,-0.63425 -6.761668,-1.0475 -2.08621,-0.39157 -4.20197,-0.85356 -6.259319,-1.43855 -2.008085,-0.57965 -4.052247,-1.27137 -5.91302,-2.28352 -0.886923,-0.49987 -1.739929,-1.05731 -2.611255,-1.58355 0,0.31557 0,0.63115 0,0.94672 z" />
    <path
       id="path34"
       style="fill:url(#linearGradient47);fill-opacity:1;stroke:none;stroke-width:0.264999;stroke-dasharray:none"
       d="m 136.7746,113.91243 c -0.71198,0.52195 -1.45058,1.01069 -2.24834,1.39279 -1.13505,0.56138 -2.33004,1.02057 -3.5113,1.424 -2.01218,0.68242 -4.06733,1.22537 -6.15329,1.68301 -2.58273,0.55842 -5.22113,0.99076 -7.86236,1.33776 -2.6748,0.34746 -5.37684,0.58022 -8.07362,0.72635 -1.21625,0.0631 -2.47209,0.11755 -3.68973,0.14746 -3.91316,0.1048 -7.829456,0.10393 -11.742443,-0.009 -1.632529,-0.0499 -3.29847,-0.1242 -4.928412,-0.22642 -1.410332,-0.0884 -2.812476,-0.19816 -4.208388,-0.33342 -2.617063,-0.2542 -5.225995,-0.59992 -7.813585,-1.06849 -0.334934,-0.0647 -0.711991,-0.13099 -1.049041,-0.19871 -2.308458,-0.45801 -4.604883,-0.99567 -6.851576,-1.69972 -0.50093,-0.1622 -1.01537,-0.34329 -1.484614,-0.51931 -0.653177,-0.24172 -1.337995,-0.51949 -1.954131,-0.78154 -0.935336,-0.41974 -1.89194,-0.82023 -2.738837,-1.4051 -0.208946,-0.19919 -0.756383,-0.58617 -1.054786,-0.48162 -0.355346,0.10871 -0.215817,0.71376 -0.24844,1.04862 -0.118324,1.25401 -0.0887,2.51636 -0.104767,3.77455 -0.01372,4.22119 -0.0039,8.44242 -0.0069,12.66363 0.715132,0.70224 1.38551,1.46629 2.238926,2.00795 1.649836,1.09152 3.513764,1.80588 5.383337,2.42314 3.54571,1.13895 7.212782,1.85296 10.890686,2.40781 7.75466,1.14059 15.612176,1.43873 23.441781,1.27036 6.03449,-0.14975 12.07153,-0.5973 18.031,-1.57847 3.41785,-0.57725 6.82597,-1.30923 10.09057,-2.49221 1.75126,-0.65534 3.49755,-1.42595 4.95459,-2.61986 0.53975,-0.46261 1.01883,-0.99003 1.52774,-1.48538 v -17.99684 c -0.27802,0.1962 -0.55604,0.3924 -0.83405,0.5886 z" />
    <rect
       style="fill:none;stroke:none;stroke-width:1.5;stroke-linecap:round"
       id="rect26"
       width="101.80466"
       height="68.816177"
       x="54.988647"
       y="129.80199" />
    <path
       id="ellipse27"
       style="fill:none;stroke:#000000;stroke-width:3;stroke-linecap:round;stroke-dasharray:none"
       d="m 138.23575,110.48198 a 38.927921,9.7319803 0 0 1 -38.927918,9.73198 38.927921,9.7319803 0 0 1 -38.927921,-9.73198 38.927921,9.7319803 0 0 1 38.927921,-9.73198 38.927921,9.7319803 0 0 1 38.927918,9.73198 z" />
    <path
       d="m 138.236,110.482 v 40 m -77.8561,-40 v 40 m 77.8561,-40 v 40"
       style="fill:none;stroke:#000000;stroke-width:3;stroke-dasharray:none;stroke-opacity:1"
       id="path30" />
    <path
       id="path28"
       style="fill:none;stroke:#000000;stroke-width:3;stroke-linecap:round;stroke-dasharray:none"
       d="m 138.23575,130.48198 c 0,5.37482 -17.42862,9.73198 -38.927918,9.73198 -21.499297,0 -38.92792,-4.35716 -38.927921,-9.73198" />
    <path
       id="path33"
       style="fill:none;stroke:#000000;stroke-width:3;stroke-linecap:round;stroke-dasharray:none"
       d="m 138.23575,150.48198 c 0,5.37482 -17.42862,9.73198 -38.927918,9.73198 -21.499297,0 -38.92792,-4.35716 -38.927921,-9.73198" />
    <path
       id="path35"
       style="fill:url(#linearGradient51);fill-opacity:1;stroke:#000000;stroke-width:2;stroke-linecap:round;stroke-dasharray:none;stroke-opacity:1"
       d="m 98.773815,101.45634 c -3.799168,0.0319 -7.600842,0.096 -11.392069,0.35708 -2.655134,0.21842 -5.301038,0.54699 -7.934352,0.94965 -3.664773,0.57645 -7.31712,1.30538 -10.856798,2.42948 -1.846019,0.60429 -3.689379,1.29145 -5.333048,2.34323 -0.848765,0.56389 -1.70226,1.25569 -2.070118,2.23871 -0.221157,0.5731 -0.171646,1.24039 0.160716,1.76095 0.558757,0.9116 1.46391,1.53667 2.35523,2.09197 2.298904,1.36951 4.861738,2.21907 7.434977,2.90681 5.547527,1.48568 11.272552,2.15405 16.983803,2.62527 1.880663,0.14902 3.76239,0.29066 5.646454,0.38703 2.823975,0.0656 5.649224,0.006 8.47302,-0.0457 2.75543,-0.0659 5.51217,-0.12647 8.2631,-0.30346 3.92374,-0.31971 7.83695,-0.80078 11.70984,-1.51177 3.06289,-0.5737 6.11428,-1.27393 9.04775,-2.3381 1.62557,-0.60319 3.24541,-1.30318 4.62771,-2.36756 0.65205,-0.52772 1.29263,-1.14337 1.59047,-1.94636 0.241,-0.65543 0.0473,-1.3965 -0.38144,-1.92825 -0.62691,-0.79452 -1.49053,-1.35543 -2.33728,-1.88934 -1.84502,-1.08962 -3.88723,-1.7903 -5.93284,-2.39797 -3.85406,-1.11174 -7.81436,-1.80986 -11.78351,-2.35872 -2.36472,-0.31437 -4.73557,-0.59264 -7.11473,-0.77096 -3.4468,-0.20985 -6.90183,-0.23474 -10.354142,-0.23356 -0.267581,5.4e-4 -0.535162,0.001 -0.802743,0.002 z" />
    <g
       id="g40"
       transform="matrix(0.68242256,0,0,0.68242256,80.383267,25.866141)"
       style="fill:#ffc602;fill-opacity:1;stroke:#000000;stroke-width:3.49051;stroke-dasharray:none;stroke-opacity:1">
      <path
         id="path38"
         style="fill:#ffc602;fill-opacity:1;stroke:#000000;stroke-width:5.12879;stroke-linecap:round;stroke-dasharray:none;stroke-opacity:1"
         d="m 38.543602,124.68023 c -2.4e-5,4.67149 -23.06018,4.67147 -23.060204,0" />
      <path
         d="M 38.5436,124.68 V 99.0205 M 15.4834,124.68 V 99.0205 M 38.5436,124.68 V 99.0205"
         style="fill:#ffc602;fill-opacity:1;stroke:#000000;stroke-width:5.12879;stroke-dasharray:none;stroke-opacity:1"
         id="path39" />
      <path
         id="ellipse39"
         style="fill:#ffc602;fill-opacity:1;stroke:#000000;stroke-width:3.49051;stroke-linecap:round;stroke-dasharray:none;stroke-opacity:1"
         d="M 38.543602,99.020523 A 11.530102,3.5725856 0 0 1 27.0135,102.59311 11.530102,3.5725856 0 0 1 15.483398,99.020523 11.530102,3.5725856 0 0 1 27.0135,95.447937 11.530102,3.5725856 0 0 1 38.543602,99.020523 Z" />
      <path
         style="fill:#ffc602;fill-opacity:1;stroke:none;stroke-width:13.1925;stroke-linecap:round;stroke-dasharray:none;stroke-opacity:1"
         d="m 94.684066,480.39434 c -15.059359,-0.75078 -27.277418,-3.68072 -31.184753,-7.47821 l -1.04812,-1.01866 v -43.72115 -43.72115 l 1.955302,0.91224 c 5.503196,2.56751 13.683649,4.49012 23.878398,5.61202 4.942963,0.54396 21.242557,0.61986 26.307717,0.12251 10.74357,-1.05492 19.25447,-3.00426 25.4563,-5.83053 l 1.80317,-0.82173 -0.0611,43.70365 -0.0611,43.70365 -0.93854,0.96114 c -1.06883,1.09456 -4.13885,2.74642 -6.77676,3.64633 -9.13135,3.11509 -24.62382,4.66309 -39.330474,3.92989 z"
         id="path40"
         transform="scale(0.26458333)" />
    </g>
    <ellipse
       style="fill:url(#linearGradient58);fill-opacity:1;stroke:#000000;stroke-width:3;stroke-linecap:round;stroke-dasharray:none;stroke-opacity:1"
       id="path37"
       cx="98.509918"
       cy="72.757111"
       rx="25.778509"
       ry="23.741116" />
  </g>
</svg>
