<?xml version="1.0" encoding="UTF-8" standalone="no"?>
<!-- Created with Inkscape (http://www.inkscape.org/) -->

<svg
   width="57.461689mm"
   height="65.440826mm"
   viewBox="0 0 57.461689 65.440826"
   version="1.1"
   id="svg1"
   xmlns:xlink="http://www.w3.org/1999/xlink"
   xmlns="http://www.w3.org/2000/svg"
   xmlns:svg="http://www.w3.org/2000/svg">
  <defs
     id="defs1">
    <linearGradient
       id="linearGradient3">
      <stop
         style="stop-color:#154095;stop-opacity:0.94901961;"
         offset="0"
         id="stop3" />
      <stop
         style="stop-color:#8d75cf;stop-opacity:0;"
         offset="1"
         id="stop4" />
    </linearGradient>
    <linearGradient
       id="linearGradient1">
      <stop
         style="stop-color:#133e93;stop-opacity:1;"
         offset="0"
         id="stop1" />
      <stop
         style="stop-color:#3c60aa;stop-opacity:0;"
         offset="1"
         id="stop2" />
    </linearGradient>
    <linearGradient
       id="linearGradient65">
      <stop
         style="stop-color:#4183d0;stop-opacity:1;"
         offset="0"
         id="stop65" />
      <stop
         style="stop-color:#cfefe7;stop-opacity:1;"
         offset="1"
         id="stop66" />
    </linearGradient>
    <linearGradient
       id="linearGradient63">
      <stop
         style="stop-color:#3171c8;stop-opacity:1;"
         offset="0"
         id="stop63" />
      <stop
         style="stop-color:#c8f9db;stop-opacity:1;"
         offset="1"
         id="stop64" />
    </linearGradient>
    <linearGradient
       xlink:href="#linearGradient63"
       id="linearGradient64"
       x1="59.683407"
       y1="143.24585"
       x2="116.7451"
       y2="143.24585"
       gradientUnits="userSpaceOnUse" />
    <linearGradient
       xlink:href="#linearGradient65"
       id="linearGradient66"
       x1="59.683407"
       y1="132.18057"
       x2="116.7451"
       y2="132.18057"
       gradientUnits="userSpaceOnUse" />
    <linearGradient
       xlink:href="#linearGradient63"
       id="linearGradient68"
       gradientUnits="userSpaceOnUse"
       x1="59.683407"
       y1="143.24585"
       x2="116.7451"
       y2="143.24585" />
    <linearGradient
       xlink:href="#linearGradient63"
       id="linearGradient70"
       gradientUnits="userSpaceOnUse"
       x1="59.683407"
       y1="143.24585"
       x2="116.7451"
       y2="143.24585" />
    <linearGradient
       xlink:href="#linearGradient1"
       id="linearGradient2"
       x1="59.483406"
       y1="132.18057"
       x2="116.9451"
       y2="132.18057"
       gradientUnits="userSpaceOnUse" />
    <linearGradient
       xlink:href="#linearGradient3"
       id="linearGradient4"
       x1="59.483406"
       y1="132.18057"
       x2="116.9451"
       y2="132.18057"
       gradientUnits="userSpaceOnUse" />
  </defs>
  <g
     id="layer1"
     transform="translate(-59.483411,-145.34069)">
    <g
       id="g70">
      <g
         id="g69"
         style="stroke:#081b37;stroke-width:1.4;stroke-dasharray:none;stroke-opacity:1"
         transform="translate(0,56.270744)">
        <path
           d="m 88.214254,126.74782 a 28.03084,5.4325404 0 0 0 -28.030847,5.43274 28.03084,5.4325404 0 0 0 28.030847,5.43275 28.03084,5.4325404 0 0 0 28.030846,-5.43275 28.03084,5.4325404 0 0 0 -28.030846,-5.43274 z"
           style="fill:url(#linearGradient4);fill-opacity:1;stroke:#081b37;stroke-width:1.4;stroke-linecap:round;stroke-dasharray:none;stroke-opacity:1"
           id="path68" />
        <path
           d="m 116.2451,132.18108 a 28.03084,5.4325404 0 0 1 -28.030846,5.43223 28.03084,5.4325404 0 0 1 -28.030847,-5.43223 v 16.19694 c 10e-7,3.00031 12.549857,5.43275 28.030847,5.43275 15.480986,0 28.030846,-2.43244 28.030846,-5.43275 z"
           style="fill:url(#linearGradient70);fill-opacity:1;stroke:#081b37;stroke-width:1.4;stroke-dasharray:none;stroke-opacity:1"
           id="path69" />
      </g>
      <g
         id="g67"
         style="stroke:#081b37;stroke-width:1.4;stroke-dasharray:none;stroke-opacity:1"
         transform="translate(0,37.826164)">
        <path
           d="m 88.214254,126.74782 a 28.03084,5.4325404 0 0 0 -28.030847,5.43274 28.03084,5.4325404 0 0 0 28.030847,5.43275 28.03084,5.4325404 0 0 0 28.030846,-5.43275 28.03084,5.4325404 0 0 0 -28.030846,-5.43274 z"
           style="fill:url(#linearGradient2);fill-opacity:1;stroke:#081b37;stroke-width:1.4;stroke-linecap:round;stroke-dasharray:none;stroke-opacity:1"
           id="path66" />
        <path
           d="m 116.2451,132.18108 c -8.8e-4,3.00019 -12.55046,5.43223 -28.030846,5.43223 -7.019746,0 -13.436841,-0.50009 -18.354477,-1.32648 -5.927043,-0.99602 -9.675887,-2.46603 -9.67637,-4.10575 v 16.19694 c 10e-7,3.00031 12.549857,5.43275 28.030847,5.43275 15.480986,0 28.030846,-2.43244 28.030846,-5.43275 z"
           style="fill:url(#linearGradient68);fill-opacity:1;stroke:#081b37;stroke-width:1.4;stroke-dasharray:none;stroke-opacity:1"
           id="path67" />
      </g>
      <g
         id="g63"
         style="stroke:#081b37;stroke-width:1.4;stroke-dasharray:none;stroke-opacity:1"
         transform="translate(0,19.292879)">
        <path
           d="m 116.2451,132.18108 a 28.03084,5.4325404 0 0 1 -28.030846,5.43223 28.03084,5.4325404 0 0 1 -28.030847,-5.43223 v 16.19694 c 10e-7,3.00031 12.549857,5.43275 28.030847,5.43275 15.480986,0 28.030846,-2.43244 28.030846,-5.43275 z"
           style="fill:url(#linearGradient64);fill-opacity:1;stroke:#081b37;stroke-width:1.4;stroke-dasharray:none;stroke-opacity:1"
           id="path63" />
        <path
           d="m 88.214254,126.74782 a 28.03084,5.4325404 0 0 0 -28.030847,5.43274 28.03084,5.4325404 0 0 0 28.030847,5.43275 28.03084,5.4325404 0 0 0 28.030846,-5.43275 28.03084,5.4325404 0 0 0 -28.030846,-5.43274 z"
           style="fill:url(#linearGradient66);fill-opacity:1;stroke:#081b37;stroke-width:1.4;stroke-linecap:round;stroke-dasharray:none;stroke-opacity:1"
           id="path62" />
      </g>
    </g>
  </g>
</svg>
